<svg xmlns="http://www.w3.org/2000/svg" xmlns:xlink="http://www.w3.org/1999/xlink" width="40" zoomAndPan="magnify" viewBox="0 0 30 30.000001" height="40" preserveAspectRatio="xMidYMid meet" version="1.2"><defs><clipPath id="988ff18caf"><path d="M 0.484375 0 L 29.515625 0 L 29.515625 29.03125 L 0.484375 29.03125 Z M 0.484375 0 "/></clipPath><clipPath id="468cfde871"><path d="M 7.253906 0 L 23.21875 0 L 23.21875 27.582031 L 7.253906 27.582031 Z M 7.253906 0 "/></clipPath><clipPath id="dea3ba8135"><path d="M 6.199219 0.558594 L 22.164062 0.558594 L 22.164062 27.414062 L 6.199219 27.414062 Z M 6.199219 0.558594 "/></clipPath><clipPath id="cf3c55f17f"><path d="M 7 10 L 25 10 L 25 28 L 7 28 Z M 7 10 "/></clipPath><clipPath id="a5eb62496d"><path d="M 22.597656 10.4375 L 24.652344 12.488281 L 8.230469 28.910156 L 6.175781 26.859375 Z M 22.597656 10.4375 "/></clipPath><clipPath id="6e7b19684e"><path d="M 22.597656 10.4375 L 24.652344 12.488281 L 8.230469 28.910156 L 6.175781 26.859375 Z M 22.597656 10.4375 "/></clipPath><clipPath id="a05f905d27"><path d="M 22.609375 10.445312 L 24.554688 12.390625 L 8.542969 28.402344 L 6.597656 26.457031 Z M 22.609375 10.445312 "/></clipPath><clipPath id="2d86c152ae"><path d="M 6 22 L 13 22 L 13 29 L 6 29 Z M 6 22 "/></clipPath><clipPath id="9d9999fe20"><path d="M 22.597656 10.4375 L 24.652344 12.488281 L 8.230469 28.910156 L 6.175781 26.859375 Z M 22.597656 10.4375 "/></clipPath><clipPath id="b7e2e69576"><path d="M 22.597656 10.4375 L 24.652344 12.488281 L 8.230469 28.910156 L 6.175781 26.859375 Z M 22.597656 10.4375 "/></clipPath><clipPath id="49b6704f32"><path d="M 12 11 L 22 11 L 22 23 L 12 23 Z M 12 11 "/></clipPath><clipPath id="ec6627e329"><path d="M 22.597656 10.4375 L 24.652344 12.488281 L 8.230469 28.910156 L 6.175781 26.859375 Z M 22.597656 10.4375 "/></clipPath><clipPath id="53b76730b5"><path d="M 22.597656 10.4375 L 24.652344 12.488281 L 8.230469 28.910156 L 6.175781 26.859375 Z M 22.597656 10.4375 "/></clipPath><clipPath id="a618ad8d09"><path d="M 5.433594 12.332031 L 17 12.332031 L 17 24 L 5.433594 24 Z M 5.433594 12.332031 "/></clipPath><clipPath id="669658e867"><path d="M 15 21 L 22.125 21 L 22.125 28.300781 L 15 28.300781 Z M 15 21 "/></clipPath></defs><g id="9a111a0559"><g clip-rule="nonzero" clip-path="url(#988ff18caf)"><path style=" stroke:none;fill-rule:nonzero;fill:#ffffff;fill-opacity:1;" d="M 0.484375 0 L 29.515625 0 L 29.515625 29.03125 L 0.484375 29.03125 Z M 0.484375 0 "/><path style=" stroke:none;fill-rule:nonzero;fill:#ffffff;fill-opacity:1;" d="M 0.484375 0 L 29.515625 0 L 29.515625 29.03125 L 0.484375 29.03125 Z M 0.484375 0 "/></g><g clip-rule="nonzero" clip-path="url(#468cfde871)"><path style=" stroke:none;fill-rule:nonzero;fill:#000000;fill-opacity:1;" d="M 13.230469 18.765625 C 13.566406 19.640625 13.265625 20.421875 12.886719 21.191406 C 12.542969 21.886719 12.183594 22.574219 11.914062 23.300781 C 11.652344 24.015625 11.515625 24.746094 11.65625 25.496094 C 11.785156 26.179688 12.125 26.757812 12.757812 27.117188 C 12.773438 27.128906 12.792969 27.136719 12.816406 27.148438 C 12.746094 27.1875 12.710938 27.15625 12.675781 27.144531 C 12.15625 26.941406 11.644531 26.714844 11.1875 26.378906 C 11.121094 26.328125 11.054688 26.273438 10.980469 26.230469 C 10.363281 25.871094 9.839844 25.398438 9.390625 24.847656 C 8.855469 24.199219 8.398438 23.5 8.199219 22.667969 C 7.933594 21.582031 7.910156 20.484375 8.121094 19.382812 C 8.328125 18.304688 8.820312 17.347656 9.414062 16.441406 C 9.871094 15.746094 10.359375 15.074219 10.71875 14.320312 C 11.101562 13.53125 11.226562 12.703125 11.03125 11.835938 C 10.976562 11.597656 10.917969 11.371094 10.800781 11.15625 C 10.730469 11.027344 10.761719 10.980469 10.90625 10.980469 C 11.09375 10.976562 11.253906 11.0625 11.402344 11.167969 C 12.167969 11.699219 12.507812 12.472656 12.683594 13.351562 C 12.792969 13.90625 12.792969 14.460938 12.734375 15.023438 C 12.707031 15.292969 12.679688 15.5625 12.707031 15.835938 C 12.722656 15.976562 12.761719 16.105469 12.832031 16.222656 C 12.941406 16.417969 13.128906 16.460938 13.300781 16.324219 C 13.492188 16.167969 13.585938 15.957031 13.628906 15.714844 C 13.808594 14.644531 13.558594 13.617188 13.328125 12.589844 C 13.148438 11.792969 13.046875 10.992188 13.042969 10.175781 C 13.042969 9.074219 13.453125 8.101562 14.050781 7.199219 C 14.226562 6.9375 14.417969 6.679688 14.613281 6.429688 C 14.972656 5.96875 15.292969 5.480469 15.597656 4.980469 C 16.019531 4.28125 16.195312 3.539062 16.089844 2.722656 C 16.027344 2.21875 15.910156 1.738281 15.652344 1.304688 C 15.378906 0.84375 14.988281 0.515625 14.464844 0.351562 C 14.363281 0.316406 14.195312 0.300781 14.226562 0.152344 C 14.257812 0.00390625 14.421875 0.0507812 14.523438 0.0625 C 15.15625 0.132812 15.707031 0.402344 16.183594 0.820312 C 16.433594 1.039062 16.648438 1.285156 16.839844 1.550781 C 17.257812 2.128906 17.613281 2.738281 17.804688 3.429688 C 17.96875 4.03125 18.003906 4.644531 17.960938 5.265625 C 17.882812 6.453125 17.539062 7.578125 17.21875 8.714844 C 17.113281 9.097656 16.996094 9.488281 16.976562 9.894531 C 16.964844 10.203125 16.996094 10.507812 17.148438 10.789062 C 17.316406 11.101562 17.597656 11.230469 17.9375 11.230469 C 18.246094 11.230469 18.414062 11.015625 18.53125 10.765625 C 18.746094 10.316406 18.945312 9.859375 18.917969 9.339844 C 18.898438 9.03125 18.847656 8.730469 18.757812 8.4375 C 18.75 8.402344 18.707031 8.359375 18.75 8.328125 C 18.785156 8.300781 18.824219 8.320312 18.863281 8.335938 C 19.144531 8.453125 19.324219 8.671875 19.476562 8.917969 C 20.0625 9.882812 20.21875 10.945312 20.195312 12.042969 C 20.164062 13.65625 19.773438 15.203125 19.273438 16.726562 C 19.050781 17.394531 18.816406 18.058594 18.664062 18.75 C 18.597656 19.066406 18.5625 19.382812 18.671875 19.703125 C 18.742188 19.914062 18.886719 20.039062 19.074219 20.125 C 19.171875 20.171875 19.273438 20.160156 19.367188 20.113281 C 19.53125 20.035156 19.652344 19.910156 19.738281 19.75 C 20.003906 19.269531 20.136719 18.746094 20.238281 18.21875 C 20.390625 17.472656 20.484375 16.71875 20.46875 15.953125 C 20.460938 15.578125 20.457031 15.199219 20.449219 14.820312 C 20.449219 14.757812 20.421875 14.679688 20.5 14.644531 C 20.585938 14.613281 20.644531 14.667969 20.699219 14.722656 C 20.90625 14.957031 21.050781 15.230469 21.152344 15.519531 C 21.382812 16.207031 21.496094 16.921875 21.511719 17.644531 C 21.527344 18.410156 21.394531 19.160156 21.171875 19.890625 C 21.058594 20.269531 20.996094 20.65625 21.003906 21.050781 C 21.007812 21.21875 21.042969 21.371094 21.167969 21.496094 C 21.359375 21.6875 21.613281 21.6875 21.789062 21.480469 C 21.988281 21.253906 22.050781 20.964844 22.121094 20.679688 C 22.253906 20.148438 22.171875 19.632812 21.960938 19.132812 C 21.945312 19.09375 21.933594 19.058594 21.921875 19.019531 C 21.914062 18.976562 21.925781 18.9375 21.957031 18.910156 C 21.996094 18.875 22.03125 18.898438 22.066406 18.921875 C 22.199219 18.996094 22.292969 19.109375 22.375 19.230469 C 22.546875 19.488281 22.746094 19.734375 22.882812 20.015625 C 23.21875 20.710938 23.289062 21.441406 23.171875 22.195312 C 22.941406 23.644531 22.21875 24.78125 21.054688 25.664062 C 20.144531 26.355469 19.144531 26.878906 18.082031 27.285156 C 17.96875 27.328125 17.84375 27.351562 17.722656 27.382812 C 17.683594 27.390625 17.628906 27.429688 17.609375 27.359375 C 17.59375 27.304688 17.65625 27.308594 17.683594 27.292969 C 18.238281 26.984375 18.769531 26.636719 19.253906 26.222656 C 19.914062 25.65625 20.398438 24.96875 20.566406 24.089844 C 20.640625 23.695312 20.582031 23.304688 20.449219 22.929688 C 20.292969 22.484375 20.117188 22.046875 19.828125 21.664062 C 19.824219 21.65625 19.820312 21.644531 19.8125 21.636719 C 19.75 21.585938 19.703125 21.46875 19.617188 21.515625 C 19.558594 21.542969 19.625 21.648438 19.640625 21.71875 C 19.695312 21.933594 19.765625 22.148438 19.800781 22.371094 C 19.859375 22.757812 19.660156 23.039062 19.355469 23.226562 C 19.117188 23.371094 18.855469 23.324219 18.617188 23.175781 C 18.289062 22.972656 18.039062 22.695312 17.816406 22.382812 C 17.203125 21.515625 16.742188 20.574219 16.46875 19.550781 C 16.140625 18.308594 16.140625 17.054688 16.441406 15.800781 C 16.527344 15.445312 16.632812 15.09375 16.75 14.746094 C 16.761719 14.714844 16.773438 14.679688 16.78125 14.644531 C 16.800781 14.585938 16.785156 14.53125 16.730469 14.5 C 16.683594 14.472656 16.632812 14.488281 16.59375 14.527344 C 16.535156 14.582031 16.476562 14.640625 16.429688 14.703125 C 15.835938 15.527344 15.378906 16.414062 15.183594 17.417969 C 15.105469 17.820312 15.121094 18.230469 15.171875 18.636719 C 15.207031 18.914062 15.246094 19.195312 15.300781 19.46875 C 15.359375 19.757812 15.441406 20.042969 15.515625 20.328125 C 15.613281 20.699219 15.605469 21.0625 15.496094 21.429688 C 15.421875 21.675781 15.300781 21.886719 15.015625 21.929688 C 14.714844 21.976562 14.492188 21.828125 14.339844 21.59375 C 14.117188 21.257812 14.027344 20.882812 14.097656 20.476562 C 14.210938 19.824219 13.835938 19.074219 13.230469 18.765625 Z M 13.976562 8.445312 C 13.957031 8.453125 13.945312 8.453125 13.941406 8.460938 C 13.925781 8.484375 13.910156 8.511719 13.902344 8.539062 C 13.75 9.148438 13.621094 9.765625 13.589844 10.394531 C 13.5625 10.972656 13.671875 11.53125 13.8125 12.082031 C 13.925781 12.515625 14.089844 12.9375 14.105469 13.394531 C 14.105469 13.425781 14.109375 13.457031 14.148438 13.457031 C 14.207031 13.460938 14.191406 13.414062 14.191406 13.382812 C 14.191406 13.175781 14.183594 12.972656 14.167969 12.765625 C 14.144531 12.300781 14.066406 11.839844 13.964844 11.390625 C 13.773438 10.5625 13.761719 9.734375 13.910156 8.898438 C 13.9375 8.753906 13.996094 8.605469 13.976562 8.445312 Z M 9.113281 18.34375 C 9.03125 18.359375 9.023438 18.417969 9 18.464844 C 8.667969 19.132812 8.519531 19.835938 8.558594 20.582031 C 8.582031 20.972656 8.679688 21.332031 8.878906 21.664062 C 8.902344 21.699219 8.910156 21.769531 8.964844 21.746094 C 9.007812 21.726562 8.984375 21.667969 8.972656 21.625 C 8.878906 21.296875 8.84375 20.957031 8.835938 20.617188 C 8.828125 20.378906 8.851562 20.144531 8.871094 19.910156 C 8.902344 19.589844 8.914062 19.269531 8.980469 18.957031 C 9.027344 18.753906 9.070312 18.550781 9.113281 18.34375 Z M 12.847656 20.113281 C 12.761719 20.257812 12.707031 20.40625 12.613281 20.542969 C 12.332031 20.949219 12.058594 21.359375 11.847656 21.8125 C 11.601562 22.355469 11.390625 22.902344 11.355469 23.507812 C 11.355469 23.550781 11.328125 23.617188 11.386719 23.625 C 11.453125 23.632812 11.4375 23.5625 11.441406 23.523438 C 11.453125 23.304688 11.507812 23.101562 11.582031 22.898438 C 11.847656 22.183594 12.230469 21.523438 12.613281 20.871094 C 12.75 20.636719 12.832031 20.382812 12.847656 20.113281 Z M 16.8125 15.828125 C 16.726562 15.96875 16.714844 16.089844 16.699219 16.210938 C 16.625 16.746094 16.515625 17.273438 16.578125 17.820312 C 16.648438 18.386719 16.714844 18.949219 16.996094 19.457031 C 17.011719 19.488281 17.007812 19.558594 17.066406 19.535156 C 17.125 19.511719 17.074219 19.460938 17.0625 19.433594 C 16.921875 19.039062 16.832031 18.640625 16.792969 18.222656 C 16.730469 17.585938 16.714844 16.953125 16.789062 16.3125 C 16.808594 16.167969 16.847656 16.019531 16.8125 15.828125 Z M 17.496094 4.316406 C 17.496094 4.414062 17.484375 4.5 17.496094 4.582031 C 17.558594 4.914062 17.53125 5.242188 17.445312 5.5625 C 17.300781 6.105469 17.140625 6.644531 16.992188 7.1875 C 16.980469 7.230469 16.910156 7.3125 16.980469 7.335938 C 17.046875 7.359375 17.050781 7.253906 17.074219 7.207031 C 17.152344 7.042969 17.21875 6.878906 17.300781 6.714844 C 17.644531 6.011719 17.6875 5.265625 17.609375 4.5 C 17.605469 4.4375 17.582031 4.367188 17.496094 4.316406 Z M 22.601562 22.679688 C 22.546875 22.785156 22.496094 22.867188 22.460938 22.953125 C 22.308594 23.332031 22.152344 23.699219 21.921875 24.035156 C 21.792969 24.226562 21.6875 24.429688 21.523438 24.597656 C 21.507812 24.617188 21.472656 24.644531 21.5 24.675781 C 21.527344 24.703125 21.558594 24.679688 21.582031 24.664062 C 21.601562 24.648438 21.621094 24.632812 21.640625 24.613281 C 22.066406 24.199219 22.371094 23.703125 22.5625 23.140625 C 22.609375 23.003906 22.671875 22.859375 22.601562 22.679688 Z M 16.785156 14.148438 C 16.933594 14.054688 16.96875 13.929688 17.039062 13.832031 C 17.277344 13.507812 17.507812 13.175781 17.648438 12.792969 C 17.671875 12.738281 17.707031 12.6875 17.65625 12.609375 C 17.328125 13.097656 16.984375 13.558594 16.785156 14.148438 Z M 14.164062 14.535156 C 14.164062 14.613281 14.164062 14.6875 14.164062 14.761719 C 14.164062 14.800781 14.175781 14.839844 14.214844 14.84375 C 14.265625 14.851562 14.277344 14.800781 14.28125 14.765625 C 14.285156 14.660156 14.292969 14.550781 14.277344 14.449219 C 14.265625 14.386719 14.277344 14.261719 14.214844 14.269531 C 14.121094 14.28125 14.179688 14.394531 14.164062 14.460938 C 14.160156 14.484375 14.164062 14.511719 14.164062 14.535156 Z M 7.414062 23.96875 C 7.566406 24.558594 7.910156 25 8.441406 25.296875 C 8.625 25.398438 8.792969 25.527344 8.96875 25.648438 C 9.414062 25.953125 9.84375 26.285156 10.3125 26.554688 C 10.347656 26.574219 10.394531 26.625 10.429688 26.566406 C 10.460938 26.519531 10.402344 26.503906 10.371094 26.480469 C 9.960938 26.164062 9.5625 25.832031 9.195312 25.46875 C 8.722656 24.996094 8.28125 24.492188 7.960938 23.894531 C 7.628906 23.265625 7.5 22.585938 7.445312 21.886719 C 7.429688 21.707031 7.402344 21.527344 7.382812 21.347656 C 7.378906 21.3125 7.367188 21.277344 7.324219 21.277344 C 7.28125 21.277344 7.265625 21.3125 7.265625 21.347656 C 7.265625 21.378906 7.265625 21.410156 7.269531 21.441406 C 7.304688 21.71875 7.324219 22 7.324219 22.28125 C 7.324219 22.566406 7.324219 22.855469 7.324219 23.140625 C 7.253906 23.425781 7.34375 23.695312 7.414062 23.96875 Z M 10.257812 11.851562 C 10.257812 11.804688 10.246094 11.75 10.191406 11.75 C 10.132812 11.75 10.136719 11.808594 10.136719 11.855469 C 10.140625 12.398438 9.980469 12.910156 9.839844 13.425781 C 9.730469 13.851562 9.472656 14.210938 9.289062 14.605469 C 9.136719 14.929688 9.015625 15.273438 8.773438 15.550781 C 8.527344 15.828125 8.328125 16.148438 8.058594 16.40625 C 8.023438 16.4375 7.96875 16.46875 8.003906 16.53125 C 8.046875 16.597656 8.105469 16.5625 8.152344 16.542969 C 8.339844 16.480469 8.503906 16.371094 8.628906 16.214844 C 8.785156 16.023438 8.953125 15.84375 9.125 15.667969 C 9.261719 15.527344 9.382812 15.371094 9.484375 15.203125 C 10.03125 14.285156 10.214844 13.277344 10.257812 12.230469 C 10.257812 12.101562 10.257812 11.976562 10.257812 11.851562 Z M 13.503906 27.085938 C 13.195312 26.910156 13.039062 26.609375 12.875 26.3125 C 12.636719 25.878906 12.492188 25.417969 12.472656 24.925781 C 12.453125 24.222656 12.585938 23.539062 12.753906 22.859375 C 12.769531 22.800781 12.796875 22.730469 12.726562 22.703125 C 12.660156 22.679688 12.640625 22.757812 12.617188 22.804688 C 12.480469 23.050781 12.414062 23.324219 12.324219 23.589844 C 12.132812 24.152344 11.988281 24.71875 12.101562 25.324219 C 12.230469 25.996094 12.527344 26.5625 13.085938 26.972656 C 13.214844 27.066406 13.351562 27.136719 13.527344 27.132812 C 13.515625 27.109375 13.515625 27.089844 13.503906 27.085938 Z M 18.78125 3.847656 C 18.703125 3.429688 18.519531 3.0625 18.257812 2.734375 C 18.226562 2.699219 18.214844 2.632812 18.148438 2.667969 C 18.082031 2.699219 18.117188 2.753906 18.140625 2.796875 C 18.234375 2.984375 18.320312 3.175781 18.371094 3.378906 C 18.492188 3.875 18.535156 4.378906 18.523438 4.886719 C 18.519531 5.234375 18.535156 5.582031 18.460938 5.921875 C 18.433594 6.046875 18.398438 6.164062 18.367188 6.285156 C 18.359375 6.324219 18.332031 6.371094 18.382812 6.394531 C 18.4375 6.417969 18.457031 6.363281 18.480469 6.324219 C 18.488281 6.3125 18.492188 6.296875 18.496094 6.285156 C 18.710938 5.765625 18.867188 5.238281 18.859375 4.671875 C 18.863281 4.390625 18.828125 4.121094 18.78125 3.847656 Z M 18.339844 23.308594 C 18.253906 23.238281 18.171875 23.167969 18.082031 23.101562 C 17.65625 22.78125 17.367188 22.355469 17.144531 21.882812 C 17.042969 21.664062 16.960938 21.4375 16.820312 21.242188 C 16.796875 21.210938 16.777344 21.160156 16.730469 21.183594 C 16.683594 21.207031 16.695312 21.257812 16.714844 21.292969 C 16.835938 21.503906 16.847656 21.75 16.921875 21.976562 C 17.050781 22.382812 17.226562 22.765625 17.605469 23.007812 C 17.832031 23.152344 18.09375 23.242188 18.300781 23.421875 C 18.320312 23.4375 18.34375 23.453125 18.367188 23.429688 C 18.382812 23.417969 18.390625 23.398438 18.402344 23.382812 C 18.378906 23.355469 18.363281 23.328125 18.339844 23.308594 Z M 22.0625 17.96875 C 22.0625 18.097656 22.054688 18.226562 22.09375 18.355469 C 22.113281 18.410156 22.144531 18.460938 22.203125 18.460938 C 22.257812 18.460938 22.261719 18.394531 22.269531 18.355469 C 22.304688 18.214844 22.332031 18.070312 22.3125 17.921875 C 22.261719 17.546875 22.253906 17.164062 22.28125 16.785156 C 22.285156 16.742188 22.300781 16.683594 22.242188 16.675781 C 22.171875 16.664062 22.171875 16.730469 22.15625 16.773438 C 22.054688 17.074219 22.054688 17.386719 22.0625 17.695312 C 22.0625 17.785156 22.0625 17.875 22.0625 17.96875 Z M 13.242188 21.25 C 13.167969 21.238281 13.175781 21.332031 13.160156 21.386719 C 13.105469 21.53125 13.054688 21.675781 13 21.820312 C 12.949219 21.960938 12.890625 22.101562 12.839844 22.242188 C 12.828125 22.273438 12.824219 22.3125 12.855469 22.335938 C 12.886719 22.363281 12.910156 22.332031 12.925781 22.3125 C 13.128906 22.042969 13.273438 21.75 13.285156 21.394531 C 13.269531 21.355469 13.320312 21.261719 13.242188 21.25 Z M 13.242188 21.25 "/></g><g clip-rule="nonzero" clip-path="url(#dea3ba8135)"><path style=" stroke:none;fill-rule:nonzero;fill:#f94616;fill-opacity:1;" d="M 12.152344 18.929688 C 12.484375 19.785156 12.183594 20.550781 11.804688 21.304688 C 11.464844 21.984375 11.109375 22.65625 10.839844 23.371094 C 10.578125 24.070312 10.441406 24.785156 10.582031 25.519531 C 10.710938 26.1875 11.050781 26.753906 11.679688 27.109375 C 11.695312 27.117188 11.714844 27.125 11.738281 27.136719 C 11.667969 27.175781 11.632812 27.144531 11.597656 27.132812 C 11.078125 26.933594 10.570312 26.710938 10.117188 26.382812 C 10.046875 26.335938 9.984375 26.28125 9.910156 26.238281 C 9.292969 25.886719 8.773438 25.421875 8.324219 24.886719 C 7.792969 24.25 7.339844 23.566406 7.140625 22.75 C 6.878906 21.683594 6.855469 20.613281 7.0625 19.535156 C 7.265625 18.476562 7.757812 17.542969 8.347656 16.65625 C 8.804688 15.976562 9.289062 15.316406 9.652344 14.578125 C 10.03125 13.804688 10.152344 12.996094 9.960938 12.144531 C 9.90625 11.914062 9.847656 11.6875 9.730469 11.480469 C 9.660156 11.351562 9.691406 11.308594 9.835938 11.304688 C 10.023438 11.304688 10.179688 11.386719 10.332031 11.492188 C 11.089844 12.011719 11.433594 12.769531 11.605469 13.628906 C 11.714844 14.171875 11.714844 14.714844 11.65625 15.265625 C 11.628906 15.527344 11.601562 15.796875 11.628906 16.0625 C 11.644531 16.195312 11.683594 16.324219 11.75 16.441406 C 11.863281 16.632812 12.046875 16.675781 12.21875 16.539062 C 12.410156 16.386719 12.507812 16.179688 12.546875 15.941406 C 12.726562 14.894531 12.476562 13.886719 12.246094 12.882812 C 12.070312 12.105469 11.964844 11.316406 11.964844 10.519531 C 11.964844 9.441406 12.371094 8.488281 12.96875 7.605469 C 13.144531 7.347656 13.332031 7.097656 13.527344 6.851562 C 13.886719 6.398438 14.207031 5.921875 14.507812 5.429688 C 14.925781 4.75 15.101562 4.023438 15 3.222656 C 14.933594 2.730469 14.816406 2.257812 14.5625 1.835938 C 14.289062 1.382812 13.898438 1.0625 13.378906 0.898438 C 13.277344 0.867188 13.113281 0.851562 13.144531 0.703125 C 13.171875 0.5625 13.335938 0.609375 13.4375 0.617188 C 14.070312 0.6875 14.617188 0.949219 15.09375 1.359375 C 15.339844 1.574219 15.554688 1.8125 15.746094 2.074219 C 16.160156 2.640625 16.515625 3.234375 16.703125 3.914062 C 16.867188 4.503906 16.902344 5.101562 16.863281 5.710938 C 16.785156 6.875 16.441406 7.976562 16.125 9.085938 C 16.015625 9.464844 15.898438 9.847656 15.882812 10.242188 C 15.871094 10.546875 15.902344 10.847656 16.050781 11.121094 C 16.21875 11.425781 16.5 11.550781 16.835938 11.550781 C 17.144531 11.550781 17.3125 11.34375 17.429688 11.097656 C 17.644531 10.65625 17.84375 10.210938 17.8125 9.703125 C 17.796875 9.398438 17.742188 9.105469 17.65625 8.816406 C 17.644531 8.78125 17.605469 8.742188 17.644531 8.710938 C 17.679688 8.683594 17.722656 8.703125 17.757812 8.71875 C 18.039062 8.832031 18.21875 9.046875 18.371094 9.289062 C 18.953125 10.230469 19.109375 11.273438 19.085938 12.347656 C 19.054688 13.929688 18.664062 15.441406 18.164062 16.933594 C 17.945312 17.585938 17.710938 18.238281 17.5625 18.914062 C 17.492188 19.222656 17.460938 19.535156 17.566406 19.847656 C 17.636719 20.054688 17.785156 20.175781 17.972656 20.261719 C 18.066406 20.304688 18.167969 20.296875 18.261719 20.25 C 18.425781 20.171875 18.546875 20.050781 18.632812 19.894531 C 18.894531 19.425781 19.027344 18.910156 19.128906 18.394531 C 19.277344 17.664062 19.375 16.925781 19.359375 16.175781 C 19.351562 15.808594 19.34375 15.4375 19.339844 15.066406 C 19.339844 15.007812 19.308594 14.929688 19.390625 14.898438 C 19.472656 14.863281 19.535156 14.917969 19.585938 14.972656 C 19.792969 15.203125 19.9375 15.46875 20.035156 15.753906 C 20.269531 16.425781 20.382812 17.125 20.394531 17.832031 C 20.410156 18.582031 20.28125 19.316406 20.058594 20.03125 C 19.945312 20.402344 19.882812 20.78125 19.890625 21.167969 C 19.894531 21.328125 19.929688 21.480469 20.054688 21.601562 C 20.242188 21.792969 20.496094 21.789062 20.671875 21.589844 C 20.871094 21.363281 20.933594 21.082031 21.003906 20.804688 C 21.136719 20.28125 21.054688 19.777344 20.84375 19.289062 C 20.828125 19.253906 20.816406 19.214844 20.804688 19.175781 C 20.796875 19.136719 20.808594 19.097656 20.839844 19.070312 C 20.878906 19.035156 20.914062 19.0625 20.949219 19.082031 C 21.082031 19.15625 21.175781 19.265625 21.253906 19.382812 C 21.429688 19.636719 21.625 19.878906 21.761719 20.152344 C 22.097656 20.832031 22.167969 21.546875 22.046875 22.289062 C 21.820312 23.707031 21.101562 24.820312 19.941406 25.683594 C 19.035156 26.359375 18.042969 26.871094 16.984375 27.269531 C 16.867188 27.3125 16.742188 27.335938 16.621094 27.367188 C 16.585938 27.375 16.53125 27.414062 16.511719 27.34375 C 16.496094 27.289062 16.554688 27.292969 16.582031 27.277344 C 17.136719 26.976562 17.667969 26.636719 18.144531 26.230469 C 18.804688 25.675781 19.289062 25.003906 19.453125 24.144531 C 19.527344 23.757812 19.472656 23.371094 19.339844 23.007812 C 19.183594 22.570312 19.007812 22.140625 18.722656 21.765625 C 18.714844 21.757812 18.710938 21.75 18.703125 21.742188 C 18.644531 21.691406 18.597656 21.574219 18.507812 21.621094 C 18.453125 21.648438 18.515625 21.75 18.53125 21.820312 C 18.585938 22.03125 18.65625 22.242188 18.691406 22.460938 C 18.753906 22.839844 18.550781 23.113281 18.25 23.296875 C 18.011719 23.441406 17.753906 23.394531 17.511719 23.246094 C 17.1875 23.046875 16.9375 22.777344 16.71875 22.472656 C 16.105469 21.625 15.644531 20.699219 15.375 19.695312 C 15.046875 18.480469 15.046875 17.253906 15.347656 16.027344 C 15.433594 15.679688 15.539062 15.335938 15.65625 14.996094 C 15.664062 14.960938 15.675781 14.929688 15.6875 14.894531 C 15.707031 14.835938 15.691406 14.785156 15.636719 14.753906 C 15.589844 14.726562 15.539062 14.738281 15.5 14.777344 C 15.441406 14.835938 15.382812 14.890625 15.335938 14.953125 C 14.742188 15.757812 14.289062 16.625 14.09375 17.609375 C 14.015625 18.003906 14.03125 18.40625 14.085938 18.804688 C 14.121094 19.074219 14.15625 19.347656 14.210938 19.617188 C 14.269531 19.902344 14.351562 20.179688 14.425781 20.460938 C 14.523438 20.820312 14.515625 21.179688 14.40625 21.535156 C 14.332031 21.777344 14.210938 21.984375 13.929688 22.03125 C 13.628906 22.074219 13.40625 21.929688 13.253906 21.699219 C 13.035156 21.371094 12.945312 21.003906 13.011719 20.605469 C 13.125 19.96875 12.753906 19.234375 12.152344 18.929688 Z M 12.894531 8.824219 C 12.875 8.832031 12.859375 8.832031 12.855469 8.839844 C 12.84375 8.863281 12.824219 8.890625 12.816406 8.917969 C 12.664062 9.515625 12.539062 10.117188 12.507812 10.734375 C 12.480469 11.296875 12.589844 11.84375 12.730469 12.386719 C 12.839844 12.8125 13.003906 13.222656 13.019531 13.667969 C 13.019531 13.699219 13.023438 13.730469 13.066406 13.734375 C 13.125 13.734375 13.109375 13.6875 13.109375 13.660156 C 13.105469 13.457031 13.097656 13.257812 13.085938 13.054688 C 13.058594 12.597656 12.984375 12.148438 12.878906 11.707031 C 12.691406 10.894531 12.679688 10.085938 12.828125 9.269531 C 12.855469 9.125 12.914062 8.980469 12.894531 8.824219 Z M 8.050781 18.515625 C 7.96875 18.53125 7.960938 18.589844 7.9375 18.636719 C 7.609375 19.289062 7.457031 19.976562 7.5 20.707031 C 7.519531 21.089844 7.617188 21.441406 7.816406 21.765625 C 7.839844 21.800781 7.851562 21.871094 7.902344 21.847656 C 7.945312 21.828125 7.921875 21.773438 7.910156 21.730469 C 7.816406 21.40625 7.78125 21.078125 7.773438 20.742188 C 7.765625 20.507812 7.789062 20.277344 7.808594 20.050781 C 7.839844 19.738281 7.851562 19.421875 7.917969 19.117188 C 7.964844 18.917969 8.007812 18.71875 8.050781 18.515625 Z M 11.769531 20.25 C 11.683594 20.390625 11.628906 20.535156 11.535156 20.667969 C 11.253906 21.066406 10.980469 21.46875 10.773438 21.910156 C 10.527344 22.441406 10.316406 22.980469 10.285156 23.574219 C 10.28125 23.613281 10.257812 23.679688 10.316406 23.6875 C 10.378906 23.695312 10.363281 23.628906 10.367188 23.585938 C 10.382812 23.375 10.4375 23.171875 10.511719 22.976562 C 10.773438 22.273438 11.152344 21.632812 11.535156 20.988281 C 11.671875 20.761719 11.753906 20.515625 11.769531 20.25 Z M 15.71875 16.054688 C 15.628906 16.191406 15.621094 16.308594 15.605469 16.429688 C 15.53125 16.953125 15.421875 17.46875 15.484375 18.003906 C 15.550781 18.558594 15.621094 19.109375 15.898438 19.609375 C 15.917969 19.636719 15.910156 19.703125 15.96875 19.683594 C 16.027344 19.660156 15.976562 19.609375 15.964844 19.582031 C 15.824219 19.199219 15.738281 18.804688 15.695312 18.398438 C 15.636719 17.773438 15.617188 17.152344 15.695312 16.53125 C 15.710938 16.386719 15.753906 16.238281 15.71875 16.054688 Z M 16.398438 4.785156 C 16.398438 4.878906 16.386719 4.964844 16.398438 5.042969 C 16.457031 5.367188 16.433594 5.6875 16.347656 6.003906 C 16.203125 6.535156 16.042969 7.0625 15.898438 7.59375 C 15.882812 7.636719 15.8125 7.714844 15.882812 7.738281 C 15.949219 7.761719 15.953125 7.660156 15.976562 7.613281 C 16.054688 7.453125 16.121094 7.289062 16.203125 7.132812 C 16.546875 6.441406 16.589844 5.710938 16.511719 4.964844 C 16.503906 4.902344 16.484375 4.832031 16.398438 4.785156 Z M 21.480469 22.761719 C 21.425781 22.863281 21.375 22.945312 21.339844 23.03125 C 21.191406 23.398438 21.035156 23.761719 20.804688 24.089844 C 20.675781 24.277344 20.570312 24.476562 20.410156 24.640625 C 20.390625 24.660156 20.355469 24.683594 20.386719 24.714844 C 20.410156 24.742188 20.441406 24.722656 20.464844 24.703125 C 20.488281 24.691406 20.503906 24.675781 20.523438 24.65625 C 20.949219 24.25 21.25 23.765625 21.441406 23.214844 C 21.488281 23.078125 21.554688 22.9375 21.480469 22.761719 Z M 15.691406 14.410156 C 15.835938 14.316406 15.875 14.195312 15.945312 14.101562 C 16.179688 13.78125 16.410156 13.457031 16.550781 13.082031 C 16.570312 13.027344 16.605469 12.976562 16.554688 12.902344 C 16.230469 13.378906 15.890625 13.832031 15.691406 14.410156 Z M 13.078125 14.789062 C 13.078125 14.863281 13.082031 14.9375 13.078125 15.011719 C 13.078125 15.050781 13.09375 15.085938 13.128906 15.089844 C 13.179688 15.097656 13.195312 15.046875 13.195312 15.011719 C 13.199219 14.910156 13.210938 14.804688 13.191406 14.703125 C 13.183594 14.640625 13.195312 14.519531 13.128906 14.527344 C 13.035156 14.539062 13.09375 14.648438 13.082031 14.714844 C 13.074219 14.738281 13.078125 14.765625 13.078125 14.789062 Z M 6.359375 24.023438 C 6.511719 24.601562 6.855469 25.03125 7.382812 25.324219 C 7.566406 25.425781 7.734375 25.550781 7.90625 25.667969 C 8.351562 25.96875 8.777344 26.292969 9.246094 26.554688 C 9.28125 26.574219 9.324219 26.625 9.363281 26.570312 C 9.394531 26.519531 9.332031 26.503906 9.304688 26.484375 C 8.894531 26.175781 8.5 25.847656 8.132812 25.492188 C 7.660156 25.027344 7.21875 24.535156 6.90625 23.949219 C 6.574219 23.335938 6.441406 22.671875 6.386719 21.984375 C 6.375 21.808594 6.347656 21.636719 6.328125 21.460938 C 6.324219 21.421875 6.308594 21.386719 6.269531 21.386719 C 6.226562 21.386719 6.210938 21.421875 6.210938 21.460938 C 6.207031 21.488281 6.210938 21.519531 6.214844 21.546875 C 6.25 21.820312 6.269531 22.09375 6.269531 22.371094 C 6.265625 22.652344 6.269531 22.933594 6.269531 23.210938 C 6.199219 23.492188 6.289062 23.753906 6.359375 24.023438 Z M 9.191406 12.160156 C 9.191406 12.113281 9.179688 12.058594 9.125 12.0625 C 9.066406 12.0625 9.070312 12.121094 9.070312 12.164062 C 9.074219 12.695312 8.914062 13.195312 8.777344 13.699219 C 8.664062 14.117188 8.410156 14.472656 8.226562 14.855469 C 8.074219 15.175781 7.953125 15.511719 7.710938 15.78125 C 7.46875 16.054688 7.269531 16.367188 7 16.617188 C 6.964844 16.648438 6.910156 16.683594 6.949219 16.742188 C 6.988281 16.808594 7.046875 16.769531 7.09375 16.753906 C 7.28125 16.691406 7.445312 16.585938 7.570312 16.433594 C 7.722656 16.246094 7.890625 16.070312 8.0625 15.894531 C 8.195312 15.757812 8.320312 15.609375 8.421875 15.441406 C 8.964844 14.542969 9.148438 13.554688 9.191406 12.53125 C 9.191406 12.40625 9.191406 12.28125 9.191406 12.160156 Z M 12.421875 27.074219 C 12.113281 26.902344 11.957031 26.609375 11.796875 26.320312 C 11.558594 25.894531 11.414062 25.445312 11.398438 24.960938 C 11.375 24.273438 11.511719 23.601562 11.675781 22.9375 C 11.691406 22.878906 11.71875 22.8125 11.648438 22.785156 C 11.582031 22.761719 11.5625 22.835938 11.539062 22.882812 C 11.402344 23.125 11.339844 23.394531 11.246094 23.652344 C 11.054688 24.203125 10.914062 24.757812 11.027344 25.351562 C 11.152344 26.011719 11.449219 26.5625 12.003906 26.964844 C 12.132812 27.058594 12.269531 27.125 12.449219 27.125 C 12.4375 27.097656 12.433594 27.082031 12.421875 27.074219 Z M 17.675781 4.324219 C 17.601562 3.914062 17.417969 3.554688 17.15625 3.234375 C 17.125 3.199219 17.117188 3.132812 17.046875 3.167969 C 16.980469 3.199219 17.015625 3.253906 17.039062 3.292969 C 17.132812 3.476562 17.21875 3.667969 17.269531 3.867188 C 17.390625 4.347656 17.429688 4.84375 17.421875 5.339844 C 17.417969 5.679688 17.433594 6.019531 17.359375 6.355469 C 17.332031 6.476562 17.296875 6.59375 17.265625 6.710938 C 17.257812 6.75 17.230469 6.792969 17.28125 6.816406 C 17.335938 6.839844 17.351562 6.785156 17.375 6.75 C 17.382812 6.738281 17.390625 6.722656 17.394531 6.710938 C 17.609375 6.203125 17.761719 5.683594 17.757812 5.128906 C 17.761719 4.855469 17.726562 4.589844 17.675781 4.324219 Z M 17.238281 23.378906 C 17.152344 23.308594 17.070312 23.238281 16.980469 23.175781 C 16.554688 22.863281 16.269531 22.445312 16.046875 21.980469 C 15.945312 21.769531 15.863281 21.546875 15.722656 21.355469 C 15.703125 21.324219 15.683594 21.277344 15.632812 21.296875 C 15.589844 21.320312 15.601562 21.371094 15.621094 21.402344 C 15.738281 21.613281 15.75 21.851562 15.824219 22.074219 C 15.957031 22.472656 16.128906 22.847656 16.507812 23.082031 C 16.734375 23.226562 16.992188 23.3125 17.199219 23.488281 C 17.21875 23.503906 17.242188 23.515625 17.265625 23.496094 C 17.28125 23.484375 17.289062 23.464844 17.300781 23.449219 C 17.277344 23.421875 17.257812 23.398438 17.238281 23.378906 Z M 20.945312 18.148438 C 20.945312 18.273438 20.933594 18.402344 20.976562 18.527344 C 20.992188 18.582031 21.027344 18.628906 21.085938 18.628906 C 21.140625 18.628906 21.140625 18.566406 21.152344 18.527344 C 21.1875 18.390625 21.210938 18.25 21.191406 18.105469 C 21.144531 17.734375 21.136719 17.363281 21.164062 16.988281 C 21.167969 16.945312 21.183594 16.890625 21.121094 16.882812 C 21.054688 16.871094 21.050781 16.9375 21.035156 16.980469 C 20.9375 17.273438 20.9375 17.578125 20.945312 17.882812 C 20.945312 17.96875 20.945312 18.058594 20.945312 18.148438 Z M 12.160156 21.363281 C 12.089844 21.351562 12.097656 21.441406 12.078125 21.496094 C 12.027344 21.636719 11.976562 21.78125 11.921875 21.921875 C 11.871094 22.058594 11.8125 22.195312 11.761719 22.332031 C 11.746094 22.363281 11.742188 22.402344 11.777344 22.425781 C 11.808594 22.453125 11.832031 22.421875 11.847656 22.402344 C 12.050781 22.136719 12.191406 21.851562 12.207031 21.503906 C 12.1875 21.464844 12.242188 21.375 12.160156 21.363281 Z M 12.160156 21.363281 "/></g><g clip-rule="nonzero" clip-path="url(#cf3c55f17f)"><g clip-rule="nonzero" clip-path="url(#a5eb62496d)"><g clip-rule="nonzero" clip-path="url(#6e7b19684e)"><g clip-rule="nonzero" clip-path="url(#a05f905d27)"><path style=" stroke:none;fill-rule:nonzero;fill:#000000;fill-opacity:1;" d="M 20.816406 16.125 C 20.734375 16.199219 20.65625 16.273438 20.566406 16.335938 C 20.316406 16.523438 20.074219 16.582031 19.703125 16.574219 C 19.488281 16.566406 19.265625 16.566406 19.046875 16.5625 C 18.992188 16.558594 18.933594 16.558594 18.878906 16.574219 C 18.785156 16.597656 18.714844 16.667969 18.644531 16.738281 C 18.542969 16.835938 18.445312 16.933594 18.34375 17.03125 C 17.773438 17.589844 13.449219 22.308594 12.570312 23.101562 C 12.4375 23.222656 12.089844 23.644531 11.964844 23.773438 C 11.878906 23.863281 11.671875 23.894531 11.546875 23.894531 C 11.496094 23.890625 11.445312 23.878906 11.394531 23.859375 C 11.261719 24.195312 11.007812 24.632812 10.542969 25.207031 C 9 27.113281 8.632812 27.066406 8.535156 27.210938 C 8.441406 27.355469 7.988281 27.921875 7.871094 27.542969 C 7.757812 27.164062 7.367188 27.15625 7.285156 27.117188 C 7.207031 27.078125 7.527344 26.796875 7.910156 26.183594 C 8.292969 25.570312 11.335938 22.886719 11.335938 22.886719 C 11.699219 22.523438 12.078125 22.164062 12.449219 21.824219 C 13.214844 21.121094 13.164062 21.175781 13.773438 20.59375 C 14.554688 19.84375 17.085938 17.414062 18.046875 16.503906 C 18.332031 16.230469 18.367188 15.992188 18.363281 15.6875 C 18.355469 15.382812 18.304688 15.066406 18.410156 14.78125 C 18.5 14.550781 18.683594 14.367188 18.859375 14.195312 C 19.085938 13.976562 19.339844 13.765625 19.554688 13.539062 C 20.480469 12.574219 21.480469 11.683594 22.546875 10.875 C 22.660156 10.789062 22.789062 10.742188 22.925781 10.761719 C 21.828125 11.90625 20.761719 12.964844 19.675781 14.121094 C 19.527344 14.277344 19.421875 14.476562 19.394531 14.6875 C 19.375 14.824219 19.394531 14.976562 19.492188 15.070312 C 19.570312 15.140625 19.605469 15.25 19.683594 15.324219 C 19.792969 15.4375 19.945312 15.492188 20.09375 15.542969 C 20.144531 15.5625 20.195312 15.578125 20.246094 15.582031 C 20.363281 15.59375 20.472656 15.539062 20.574219 15.480469 C 20.65625 15.429688 20.738281 15.371094 20.8125 15.308594 C 21.984375 14.328125 23.109375 13.1875 24.101562 12.023438 C 24.144531 12.167969 24.117188 12.324219 24.054688 12.460938 C 23.988281 12.59375 23.890625 12.710938 23.792969 12.824219 C 23.507812 13.15625 23.21875 13.484375 22.917969 13.804688 C 22.386719 14.375 21.8125 15.046875 21.292969 15.632812 C 21.140625 15.804688 20.984375 15.96875 20.816406 16.125 "/></g></g></g></g><g clip-rule="nonzero" clip-path="url(#2d86c152ae)"><g clip-rule="nonzero" clip-path="url(#9d9999fe20)"><g clip-rule="nonzero" clip-path="url(#b7e2e69576)"><path style=" stroke:none;fill-rule:nonzero;fill:#000000;fill-opacity:1;" d="M 9.054688 26.734375 C 9.0625 26.714844 9.0625 26.691406 9.074219 26.675781 C 9.078125 26.667969 9.101562 26.675781 9.113281 26.675781 C 9.109375 26.695312 9.105469 26.71875 9.101562 26.738281 C 9.082031 26.734375 9.070312 26.734375 9.054688 26.734375 Z M 8.058594 27.570312 C 8.042969 27.558594 8.027344 27.539062 8.011719 27.527344 C 8 27.511719 7.980469 27.496094 7.96875 27.480469 C 7.964844 27.46875 7.972656 27.449219 7.976562 27.4375 C 7.980469 27.433594 8 27.433594 8.007812 27.4375 C 8.039062 27.464844 8.070312 27.496094 8.097656 27.527344 C 8.101562 27.535156 8.09375 27.558594 8.085938 27.570312 C 8.085938 27.574219 8.066406 27.574219 8.058594 27.570312 Z M 9.855469 25.554688 C 9.863281 25.554688 9.878906 25.570312 9.878906 25.574219 C 9.871094 25.597656 9.859375 25.625 9.851562 25.648438 C 9.820312 25.679688 9.78125 25.703125 9.753906 25.660156 C 9.730469 25.613281 9.800781 25.546875 9.855469 25.554688 Z M 9.585938 25.742188 C 9.574219 25.722656 9.570312 25.699219 9.5625 25.679688 C 9.574219 25.679688 9.589844 25.679688 9.605469 25.679688 C 9.613281 25.699219 9.621094 25.722656 9.625 25.742188 C 9.613281 25.742188 9.589844 25.75 9.585938 25.742188 Z M 7.386719 27.785156 C 7.308594 27.765625 7.242188 27.710938 7.203125 27.640625 C 7.183594 27.601562 7.171875 27.5625 7.175781 27.519531 C 7.179688 27.445312 7.226562 27.378906 7.273438 27.320312 C 7.304688 27.277344 7.359375 27.25 7.410156 27.246094 C 7.484375 27.234375 7.566406 27.25 7.625 27.296875 C 7.683594 27.34375 7.726562 27.417969 7.722656 27.492188 C 7.722656 27.582031 7.667969 27.660156 7.605469 27.726562 C 7.550781 27.78125 7.460938 27.800781 7.386719 27.785156 Z M 11.078125 23.304688 C 11.070312 23.300781 11.078125 23.277344 11.078125 23.265625 C 11.097656 23.269531 11.121094 23.277344 11.140625 23.285156 C 11.140625 23.300781 11.140625 23.316406 11.140625 23.328125 C 11.121094 23.320312 11.097656 23.316406 11.078125 23.304688 Z M 10.394531 23.832031 C 10.394531 23.820312 10.394531 23.808594 10.394531 23.800781 C 10.410156 23.804688 10.425781 23.808594 10.4375 23.816406 C 10.441406 23.820312 10.441406 23.835938 10.441406 23.847656 C 10.425781 23.839844 10.410156 23.835938 10.394531 23.832031 Z M 8.277344 25.917969 C 8.261719 25.921875 8.234375 25.933594 8.230469 25.925781 C 8.210938 25.902344 8.214844 25.875 8.242188 25.863281 C 8.257812 25.855469 8.261719 25.796875 8.296875 25.847656 C 8.308594 25.855469 8.300781 25.878906 8.296875 25.898438 C 8.292969 25.90625 8.285156 25.910156 8.277344 25.917969 Z M 7.597656 27.140625 C 7.582031 27.140625 7.570312 27.144531 7.554688 27.148438 C 7.554688 27.140625 7.550781 27.125 7.554688 27.121094 C 7.566406 27.113281 7.582031 27.113281 7.597656 27.109375 C 7.597656 27.117188 7.597656 27.128906 7.597656 27.140625 Z M 9.113281 25.566406 C 9.113281 25.582031 9.113281 25.597656 9.113281 25.613281 C 9.09375 25.605469 9.070312 25.601562 9.050781 25.589844 C 9.046875 25.585938 9.050781 25.5625 9.050781 25.546875 C 9.070312 25.554688 9.09375 25.558594 9.113281 25.566406 Z M 8.589844 26.296875 C 8.59375 26.34375 8.59375 26.386719 8.597656 26.433594 C 8.539062 26.421875 8.503906 26.398438 8.507812 26.351562 C 8.511719 26.308594 8.542969 26.292969 8.589844 26.296875 Z M 9.671875 25.320312 C 9.65625 25.363281 9.644531 25.40625 9.632812 25.453125 C 9.621094 25.453125 9.585938 25.429688 9.578125 25.386719 C 9.570312 25.339844 9.601562 25.316406 9.671875 25.320312 Z M 12.03125 23.015625 C 12.03125 23.03125 12.03125 23.042969 12.03125 23.0625 C 12.011719 23.066406 11.992188 23.074219 11.96875 23.078125 C 11.96875 23.066406 11.964844 23.042969 11.96875 23.039062 C 11.988281 23.027344 12.011719 23.023438 12.03125 23.015625 Z M 7.867188 27.296875 C 7.867188 27.308594 7.875 27.324219 7.867188 27.324219 C 7.855469 27.332031 7.839844 27.335938 7.828125 27.339844 C 7.828125 27.328125 7.824219 27.320312 7.824219 27.308594 C 7.839844 27.304688 7.855469 27.300781 7.867188 27.296875 Z M 10.25 25.003906 C 10.257812 25.054688 10.238281 25.085938 10.195312 25.089844 C 10.152344 25.09375 10.128906 25.0625 10.117188 25.015625 C 10.160156 24.984375 10.207031 25.019531 10.25 25.003906 Z M 12.832031 22.425781 C 12.828125 22.441406 12.828125 22.457031 12.820312 22.46875 C 12.816406 22.472656 12.800781 22.46875 12.792969 22.46875 C 12.792969 22.453125 12.796875 22.4375 12.800781 22.425781 C 12.8125 22.425781 12.824219 22.425781 12.832031 22.425781 Z M 11.675781 23.589844 C 11.71875 23.566406 11.789062 23.636719 11.78125 23.691406 C 11.78125 23.703125 11.765625 23.714844 11.761719 23.714844 C 11.738281 23.707031 11.710938 23.695312 11.6875 23.683594 C 11.652344 23.65625 11.628906 23.617188 11.675781 23.589844 Z M 10.9375 24.476562 C 10.945312 24.496094 10.953125 24.519531 10.957031 24.539062 C 10.945312 24.539062 10.921875 24.546875 10.917969 24.539062 C 10.90625 24.519531 10.902344 24.496094 10.894531 24.476562 C 10.90625 24.476562 10.921875 24.476562 10.9375 24.476562 Z M 12.097656 23.214844 C 12.125 23.226562 12.140625 23.253906 12.164062 23.273438 C 12.183594 23.292969 12.207031 23.3125 12.226562 23.335938 C 12.230469 23.347656 12.230469 23.375 12.226562 23.378906 C 12.207031 23.386719 12.171875 23.402344 12.160156 23.394531 C 12.117188 23.359375 12.074219 23.3125 12.035156 23.269531 C 12.027344 23.261719 12.027344 23.230469 12.035156 23.230469 C 12.054688 23.21875 12.082031 23.207031 12.097656 23.214844 Z M 10.035156 25.867188 C 10.792969 25.078125 11.535156 24.269531 12.261719 23.453125 C 12.496094 23.191406 12.667969 22.933594 12.859375 22.644531 C 12.917969 22.554688 12.972656 22.464844 12.992188 22.359375 C 13.011719 22.257812 12.980469 22.140625 12.890625 22.082031 C 12.703125 21.957031 12.445312 22.019531 12.246094 22.117188 C 12.042969 22.214844 11.871094 22.363281 11.699219 22.511719 C 10.769531 23.316406 9.855469 24.1875 8.957031 25.03125 C 8.199219 25.742188 7.964844 25.980469 7.253906 26.738281 C 7.113281 26.886719 6.972656 27.039062 6.878906 27.222656 C 6.789062 27.402344 6.746094 27.621094 6.8125 27.8125 C 6.851562 27.929688 7.058594 28.140625 7.203125 28.171875 C 7.351562 28.203125 7.519531 28.226562 7.660156 28.164062 C 7.800781 28.105469 7.953125 27.957031 8.058594 27.851562 C 8.808594 27.109375 9.230469 26.714844 10.035156 25.867188 "/></g></g></g><g clip-rule="nonzero" clip-path="url(#49b6704f32)"><g clip-rule="nonzero" clip-path="url(#ec6627e329)"><g clip-rule="nonzero" clip-path="url(#53b76730b5)"><path style=" stroke:none;fill-rule:nonzero;fill:#000000;fill-opacity:1;" d="M 16.824219 17.757812 C 16.816406 17.769531 16.816406 17.785156 16.8125 17.800781 C 16.820312 17.800781 16.832031 17.800781 16.84375 17.800781 C 16.847656 17.785156 16.847656 17.773438 16.851562 17.757812 C 16.84375 17.757812 16.828125 17.753906 16.824219 17.757812 Z M 18.988281 14.347656 C 18.964844 14.339844 18.941406 14.332031 18.917969 14.324219 C 18.917969 14.339844 18.914062 14.363281 18.921875 14.367188 C 18.941406 14.382812 18.96875 14.386719 18.992188 14.398438 C 18.988281 14.382812 18.988281 14.367188 18.988281 14.347656 Z M 19.554688 15.667969 C 19.546875 15.65625 19.542969 15.640625 19.535156 15.625 C 19.53125 15.621094 19.515625 15.625 19.507812 15.625 C 19.511719 15.636719 19.515625 15.652344 19.523438 15.667969 C 19.535156 15.667969 19.542969 15.667969 19.554688 15.667969 Z M 14.855469 20.203125 C 14.851562 20.199219 14.835938 20.199219 14.828125 20.199219 C 14.832031 20.214844 14.839844 20.230469 14.84375 20.246094 C 14.855469 20.246094 14.863281 20.246094 14.875 20.246094 C 14.867188 20.230469 14.863281 20.214844 14.855469 20.203125 Z M 12.820312 22.46875 C 12.828125 22.457031 12.828125 22.441406 12.832031 22.425781 C 12.824219 22.425781 12.8125 22.425781 12.800781 22.425781 C 12.796875 22.4375 12.792969 22.453125 12.792969 22.46875 C 12.800781 22.46875 12.816406 22.472656 12.820312 22.46875 Z M 12.734375 21.914062 C 12.730469 21.902344 12.734375 21.878906 12.730469 21.875 C 12.710938 21.863281 12.6875 21.855469 12.667969 21.847656 C 12.667969 21.863281 12.667969 21.875 12.667969 21.894531 C 12.691406 21.898438 12.710938 21.90625 12.734375 21.914062 Z M 17.683594 17.085938 C 17.667969 17.113281 17.71875 17.164062 17.757812 17.160156 C 17.761719 17.160156 17.773438 17.152344 17.769531 17.148438 C 17.765625 17.128906 17.757812 17.113281 17.75 17.097656 C 17.726562 17.070312 17.699219 17.054688 17.683594 17.085938 Z M 21.28125 11.914062 C 21.277344 11.949219 21.324219 11.996094 21.359375 11.988281 C 21.363281 11.984375 21.371094 11.980469 21.371094 11.972656 C 21.375 11.9375 21.328125 11.890625 21.292969 11.898438 C 21.289062 11.898438 21.28125 11.90625 21.28125 11.914062 Z M 21.011719 12.53125 C 21.011719 12.472656 20.980469 12.441406 20.921875 12.441406 C 20.921875 12.5 20.953125 12.53125 21.011719 12.53125 Z M 18.367188 16.46875 C 18.367188 16.453125 18.367188 16.4375 18.367188 16.421875 C 18.347656 16.429688 18.324219 16.433594 18.304688 16.445312 C 18.300781 16.449219 18.304688 16.472656 18.304688 16.484375 C 18.328125 16.480469 18.347656 16.472656 18.367188 16.46875 Z M 20.195312 13.246094 C 20.191406 13.222656 20.183594 13.199219 20.171875 13.179688 C 20.167969 13.175781 20.148438 13.179688 20.132812 13.179688 C 20.140625 13.203125 20.144531 13.222656 20.152344 13.246094 C 20.167969 13.246094 20.183594 13.246094 20.195312 13.246094 Z M 17.480469 17.375 C 17.488281 17.394531 17.492188 17.417969 17.503906 17.4375 C 17.507812 17.441406 17.53125 17.4375 17.546875 17.4375 C 17.539062 17.417969 17.53125 17.394531 17.527344 17.375 C 17.507812 17.375 17.496094 17.375 17.480469 17.375 Z M 16.746094 18.519531 C 16.734375 18.535156 16.730469 18.558594 16.722656 18.582031 C 16.738281 18.582031 16.753906 18.582031 16.769531 18.582031 C 16.773438 18.5625 16.78125 18.539062 16.789062 18.519531 C 16.773438 18.519531 16.75 18.511719 16.746094 18.519531 Z M 16.996094 17.945312 C 17 17.949219 17.023438 17.945312 17.039062 17.945312 C 17.03125 17.921875 17.027344 17.902344 17.019531 17.882812 C 17.003906 17.882812 16.988281 17.882812 16.972656 17.878906 C 16.980469 17.902344 16.984375 17.925781 16.996094 17.945312 Z M 21.402344 12.230469 C 21.386719 12.230469 21.367188 12.226562 21.363281 12.234375 C 21.351562 12.25 21.347656 12.273438 21.339844 12.296875 C 21.351562 12.296875 21.367188 12.296875 21.382812 12.296875 C 21.390625 12.273438 21.394531 12.253906 21.402344 12.230469 Z M 21.882812 14.46875 C 21.898438 14.46875 21.914062 14.46875 21.9375 14.46875 C 21.941406 14.445312 21.949219 14.421875 21.957031 14.394531 C 21.941406 14.394531 21.914062 14.386719 21.910156 14.394531 C 21.894531 14.417969 21.890625 14.445312 21.882812 14.46875 Z M 14.738281 20.863281 C 14.75 20.84375 14.753906 20.824219 14.761719 20.800781 C 14.746094 20.800781 14.734375 20.800781 14.714844 20.800781 C 14.710938 20.820312 14.703125 20.84375 14.699219 20.863281 C 14.710938 20.863281 14.734375 20.871094 14.738281 20.863281 Z M 14.570312 20.992188 C 14.550781 21 14.527344 21.003906 14.507812 21.015625 C 14.503906 21.019531 14.507812 21.039062 14.507812 21.054688 C 14.527344 21.046875 14.550781 21.042969 14.570312 21.035156 C 14.570312 21.019531 14.570312 21.003906 14.570312 20.992188 Z M 14.132812 20.480469 C 14.125 20.484375 14.128906 20.523438 14.125 20.542969 C 14.132812 20.554688 14.144531 20.570312 14.152344 20.570312 C 14.164062 20.570312 14.179688 20.554688 14.179688 20.546875 C 14.1875 20.507812 14.195312 20.464844 14.132812 20.480469 Z M 13.78125 21.003906 C 13.78125 20.980469 13.789062 20.957031 13.785156 20.9375 C 13.785156 20.925781 13.765625 20.910156 13.757812 20.910156 C 13.75 20.910156 13.730469 20.925781 13.730469 20.9375 C 13.730469 20.957031 13.734375 20.980469 13.738281 21.003906 C 13.742188 21.007812 13.765625 21.003906 13.78125 21.003906 Z M 14.996094 20.292969 C 14.976562 20.292969 14.964844 20.292969 14.949219 20.292969 C 14.957031 20.3125 14.960938 20.335938 14.972656 20.355469 C 14.976562 20.359375 15 20.355469 15.011719 20.355469 C 15.007812 20.335938 15 20.3125 14.996094 20.292969 Z M 15.203125 20.230469 C 15.21875 20.230469 15.242188 20.234375 15.246094 20.230469 C 15.257812 20.210938 15.261719 20.1875 15.265625 20.167969 C 15.253906 20.167969 15.238281 20.167969 15.222656 20.167969 C 15.214844 20.1875 15.210938 20.207031 15.203125 20.230469 Z M 13.410156 21.707031 C 13.402344 21.683594 13.398438 21.660156 13.386719 21.640625 C 13.382812 21.636719 13.359375 21.640625 13.34375 21.640625 C 13.351562 21.664062 13.359375 21.683594 13.363281 21.707031 C 13.382812 21.707031 13.394531 21.707031 13.410156 21.707031 Z M 13.324219 22.046875 C 13.308594 22.035156 13.285156 22.03125 13.261719 22.023438 C 13.261719 22.039062 13.261719 22.050781 13.261719 22.070312 C 13.285156 22.074219 13.304688 22.082031 13.328125 22.089844 C 13.328125 22.074219 13.332031 22.050781 13.324219 22.046875 Z M 19.652344 14 C 19.660156 14 19.667969 13.988281 19.675781 13.980469 C 19.6875 13.929688 19.625 13.867188 19.570312 13.875 C 19.5625 13.875 19.550781 13.886719 19.546875 13.894531 C 19.53125 13.945312 19.597656 14.007812 19.652344 14 Z M 20.167969 16.148438 C 20.164062 16.0625 20.207031 16.019531 20.296875 16.023438 C 20.300781 16.113281 20.257812 16.152344 20.167969 16.148438 "/></g></g></g><g clip-rule="nonzero" clip-path="url(#a618ad8d09)"><path style=" stroke:none;fill-rule:nonzero;fill:#000000;fill-opacity:1;" d="M 12.679688 21.292969 C 12.503906 21.113281 12.242188 20.855469 11.925781 20.539062 C 11.605469 20.21875 11.230469 19.835938 10.828125 19.394531 C 10.429688 18.953125 10 18.449219 9.597656 17.894531 C 9.183594 17.34375 8.804688 16.820312 8.4375 16.347656 C 8.074219 15.878906 7.753906 15.445312 7.484375 15.082031 C 7.347656 14.902344 7.238281 14.734375 7.136719 14.585938 C 7.039062 14.433594 6.953125 14.308594 6.886719 14.203125 C 6.75 13.992188 6.675781 13.871094 6.6875 13.863281 C 6.695312 13.859375 6.785156 13.964844 6.9375 14.164062 C 7.015625 14.265625 7.109375 14.390625 7.214844 14.53125 C 7.324219 14.675781 7.441406 14.839844 7.582031 15.015625 C 7.859375 15.367188 8.191406 15.785156 8.558594 16.253906 C 8.929688 16.714844 9.324219 17.246094 9.730469 17.792969 C 10.136719 18.351562 10.550781 18.847656 10.945312 19.292969 C 11.339844 19.738281 11.703125 20.128906 12.011719 20.457031 C 12.316406 20.789062 12.5625 21.054688 12.730469 21.246094 C 12.894531 21.4375 12.980469 21.546875 12.972656 21.554688 C 12.964844 21.5625 12.859375 21.46875 12.679688 21.292969 Z M 14.683594 19.953125 C 13.199219 18.277344 11.589844 16.734375 9.964844 15.191406 C 8.738281 14.03125 7.230469 12.472656 5.429688 12.363281 C 6.855469 15.691406 9.421875 18.324219 11.71875 21.070312 C 12.128906 21.558594 12.511719 22.066406 12.925781 22.546875 C 13.335938 23.023438 13.792969 23.601562 14.363281 23.898438 C 15.277344 24.371094 16.003906 22.539062 16.398438 21.773438 C 15.808594 21.179688 15.234375 20.574219 14.683594 19.953125 "/></g><g clip-rule="nonzero" clip-path="url(#669658e867)"><path style=" stroke:none;fill-rule:nonzero;fill:#000000;fill-opacity:1;" d="M 22.074219 27.472656 C 22.050781 27.3125 22.011719 27.179688 21.960938 27.074219 C 21.683594 26.503906 21.15625 26.042969 20.691406 25.636719 L 20.613281 25.566406 C 20.429688 25.402344 20.234375 25.25 20.042969 25.101562 C 19.824219 24.929688 19.597656 24.753906 19.390625 24.5625 C 18.265625 23.527344 17.421875 22.722656 16.652344 21.953125 C 16.640625 21.941406 16.625 21.9375 16.609375 21.9375 C 16.589844 21.941406 16.578125 21.953125 16.566406 21.964844 C 16.488281 22.113281 16.410156 22.261719 16.332031 22.410156 C 16.1875 22.6875 16.039062 22.976562 15.867188 23.242188 C 15.855469 23.261719 15.855469 23.28125 15.867188 23.300781 C 15.878906 23.320312 15.898438 23.328125 15.917969 23.324219 C 16.046875 23.304688 16.171875 23.3125 16.28125 23.320312 C 16.449219 23.335938 16.597656 23.371094 16.742188 23.417969 C 16.816406 23.441406 16.882812 23.476562 16.941406 23.507812 C 16.976562 23.523438 17.015625 23.542969 17.050781 23.5625 L 17.121094 23.597656 C 17.34375 23.734375 17.53125 23.882812 17.675781 24.027344 C 17.820312 24.167969 17.925781 24.300781 18.027344 24.429688 C 18.21875 24.679688 18.324219 24.863281 18.378906 24.96875 C 18.386719 24.980469 18.390625 24.992188 18.398438 25.003906 C 18.390625 24.996094 18.378906 24.988281 18.371094 24.976562 C 18.296875 24.894531 18.191406 24.769531 18.039062 24.601562 L 17.941406 24.492188 C 17.738281 24.277344 17.464844 23.988281 17.035156 23.742188 L 16.867188 23.664062 C 16.808594 23.636719 16.746094 23.605469 16.683594 23.585938 C 16.554688 23.546875 16.414062 23.519531 16.265625 23.503906 C 16.078125 23.492188 15.929688 23.503906 15.816406 23.542969 C 15.742188 23.570312 15.648438 23.644531 15.625 23.730469 C 15.609375 23.785156 15.621094 23.839844 15.660156 23.882812 C 15.714844 23.949219 15.839844 23.960938 15.929688 23.964844 L 15.964844 23.96875 C 16.046875 23.976562 16.132812 23.976562 16.214844 23.972656 C 16.335938 23.96875 16.464844 23.964844 16.570312 23.996094 C 16.796875 24.058594 16.976562 24.171875 17.148438 24.359375 C 17.355469 24.582031 17.558594 24.824219 17.75 25.0625 C 18.15625 25.558594 18.574219 26.070312 19.101562 26.4375 C 19.257812 26.546875 19.429688 26.644531 19.59375 26.738281 C 19.773438 26.839844 19.960938 26.945312 20.121094 27.066406 C 20.308594 27.203125 20.394531 27.304688 20.375 27.503906 C 20.371094 27.578125 20.335938 27.65625 20.300781 27.726562 L 20.289062 27.75 C 20.234375 27.871094 20.417969 28.011719 20.582031 28.105469 C 20.605469 28.117188 20.628906 28.113281 20.644531 28.101562 C 20.78125 27.984375 20.867188 27.867188 20.898438 27.757812 C 20.933594 27.636719 20.921875 27.507812 20.863281 27.382812 C 20.753906 27.15625 20.566406 26.980469 20.378906 26.816406 C 20.144531 26.617188 19.933594 26.460938 19.746094 26.324219 C 19.652344 26.257812 19.570312 26.195312 19.492188 26.136719 C 19.28125 25.976562 19.128906 25.839844 19.046875 25.738281 C 19.039062 25.726562 19.03125 25.71875 19.023438 25.710938 L 19.054688 25.730469 C 19.167969 25.808594 19.339844 25.917969 19.554688 26.050781 C 19.597656 26.078125 19.640625 26.105469 19.691406 26.136719 C 19.90625 26.269531 20.179688 26.441406 20.492188 26.6875 C 20.566406 26.75 20.671875 26.839844 20.773438 26.945312 C 20.894531 27.070312 20.972656 27.179688 21.035156 27.304688 C 21.113281 27.464844 21.132812 27.65625 21.082031 27.816406 C 21.046875 27.929688 20.980469 28.035156 20.882812 28.140625 C 20.871094 28.152344 20.867188 28.171875 20.871094 28.191406 C 20.878906 28.210938 20.894531 28.222656 20.910156 28.226562 C 20.984375 28.242188 21.0625 28.25 21.148438 28.25 C 21.347656 28.25 21.566406 28.207031 21.714844 28.097656 C 21.90625 27.960938 22.121094 27.765625 22.074219 27.472656 "/></g></g></svg>